<?xml version="1.0" encoding="utf-8"?>
<!-- Generator: Adobe Illustrator 16.0.0, SVG Export Plug-In . SVG Version: 6.00 Build 0)  -->
<svg version="1.2" baseProfile="tiny" id="Capa_1" xmlns="http://www.w3.org/2000/svg" xmlns:xlink="http://www.w3.org/1999/xlink"
	 x="0px" y="0px" width="595.279px" height="841.891px" viewBox="0 0 595.279 841.891" xml:space="preserve">
<path fill="#354106" d="M589.23,639.104c0.119-48.845-18.52-123.884-71.189-188.046c-41.844-50.945-121.447-112.787-263.037-118.084
	l-5.775-0.216v-5.78v-97.144c0-3.476-1.982-6.645-5.053-8.072c-1.207-0.562-2.549-0.859-3.879-0.859
	c-2.066,0-4.045,0.701-5.574,1.975L9.245,408.786c-2.066,1.697-3.294,4.242-3.294,6.813c0,2.713,1.124,5.131,3.165,6.807
	L234.56,609.018c1.648,1.331,3.666,2.063,5.682,2.063c1.289,0,2.537-0.291,3.711-0.863l0.051-0.025l0.051-0.023
	c3.115-1.449,5.051-4.542,5.051-8.072v-96.778v-6.023l6.023,0.023c52.885,0.206,109.424,2.869,164.576,20.806
	c31.438,10.225,59.582,24.718,83.652,43.079c27.738,21.159,51.025,48.158,69.217,80.246c1.57,2.783,4.559,4.506,7.805,4.506
	c1.107,0,1.76-0.146,2.051-0.233l0.109-0.032l0.109-0.028C586.523,646.656,589.23,643.137,589.23,639.104z M552.98,584.869
	c-21.123-24.104-46.236-44.149-74.641-59.577c-24.561-13.338-52.441-23.678-82.875-30.73
	c-56.389-13.068-111.182-13.068-155.211-13.068c-2.4,0-4.654,0.932-6.346,2.625c-1.693,1.693-2.627,3.947-2.627,6.349v79.979v12.758
	l-9.826-8.137L34.592,420.343L29,415.713l5.601-4.62l186.984-154.237l9.816-8.099v12.727v79.979c0,4.875,3.957,8.901,8.82,8.974
	c96.98,0.937,175.793,27.894,234.215,80.121c23.426,20.94,43.283,45.811,59.023,73.918c13.158,23.495,23.199,48.717,29.85,74.965
	l6.133,24.214L552.98,584.869z"/>
</svg>
