<?xml version="1.0" encoding="utf-8"?>
<!-- Generator: Adobe Illustrator 16.0.0, SVG Export Plug-In . SVG Version: 6.00 Build 0)  -->
<svg version="1.2" baseProfile="tiny" id="Capa_1" xmlns="http://www.w3.org/2000/svg" xmlns:xlink="http://www.w3.org/1999/xlink"
	 x="0px" y="0px" width="595.279px" height="841.891px" viewBox="0 0 595.279 841.891" xml:space="preserve">
<g>
	<path fill="none" d="M211.254,466.493c86.797,0,224.964,0.122,317.24,105.422c-23.252-91.788-103.109-222.409-317.361-224.478
		c-8.156-0.122-14.73-6.817-14.73-14.973v-79.979L9.419,406.722l186.862,154.724v-79.979c0-4.018,1.582-7.791,4.382-10.591
		C203.463,468.075,207.237,466.493,211.254,466.493z"/>
	<path d="M574.23,440.104c0.119-48.845-18.52-123.884-71.189-188.046c-41.844-50.945-121.447-112.787-263.037-118.084l-5.775-0.216
		v-5.78V30.833c0-3.476-1.982-6.645-5.053-8.072c-1.207-0.562-2.549-0.859-3.879-0.859c-2.066,0-4.045,0.701-5.574,1.975
		L-5.755,209.786c-2.066,1.697-3.294,4.242-3.294,6.813c0,2.713,1.124,5.131,3.165,6.807L219.56,410.018
		c1.648,1.331,3.666,2.063,5.682,2.063c1.289,0,2.537-0.291,3.711-0.863l0.051-0.025l0.051-0.023
		c3.115-1.449,5.051-4.542,5.051-8.072v-96.778v-6.023l6.023,0.023c52.885,0.206,109.424,2.869,164.576,20.806
		c31.438,10.225,59.582,24.718,83.652,43.079c27.738,21.159,51.025,48.158,69.217,80.246c1.57,2.783,4.559,4.506,7.805,4.506
		c1.107,0,1.76-0.146,2.051-0.233l0.109-0.032l0.109-0.028C571.523,447.656,574.23,444.137,574.23,440.104z M537.98,385.869
		c-21.123-24.104-46.236-44.149-74.641-59.577c-24.561-13.338-52.441-23.678-82.875-30.73
		c-56.389-13.068-111.182-13.068-155.211-13.068c-2.4,0-4.654,0.932-6.346,2.625c-1.693,1.693-2.627,3.947-2.627,6.349v79.979
		v12.758l-9.826-8.137L19.592,221.343L14,216.713l5.601-4.62L206.585,57.856l9.816-8.099v12.727v79.979
		c0,4.875,3.957,8.901,8.82,8.974c96.98,0.937,175.793,27.894,234.215,80.121c23.426,20.941,43.283,45.811,59.023,73.918
		c13.158,23.495,23.199,48.717,29.85,74.965l6.133,24.214L537.98,385.869z"/>
	<path fill="#F4EE19" d="M516.829,709.477c-15.74-28.107-35.598-52.978-59.023-73.918c-58.422-52.228-137.234-79.184-234.215-80.121
		c-4.863-0.072-8.819-4.098-8.819-8.974v-79.979v-12.727l-9.817,8.098L17.97,616.094l-5.601,4.619l5.592,4.63l186.862,154.724
		l9.827,8.137v-12.758v-79.979c0-2.401,0.933-4.655,2.626-6.349c1.691-1.693,3.945-2.625,6.347-2.625
		c44.028,0,98.822,0,155.21,13.068c30.434,7.053,58.314,17.393,82.875,30.73c28.404,15.428,53.518,35.473,74.641,59.577
		l16.463,18.786l-6.133-24.214C540.029,758.193,529.988,732.972,516.829,709.477z M208.65,775.445L21.788,620.722l186.983-154.237
		v79.979c0,8.156,6.574,14.852,14.73,14.974c214.251,2.068,294.109,132.689,317.361,224.478
		c-92.275-105.3-230.443-105.422-317.24-105.422c-4.017,0-7.791,1.582-10.591,4.383c-2.8,2.8-4.382,6.573-4.382,10.591V775.445z"/>
</g>
</svg>
