<?xml version="1.0" encoding="utf-8"?>
<!-- Generator: Adobe Illustrator 16.0.0, SVG Export Plug-In . SVG Version: 6.00 Build 0)  -->
<svg version="1.2" baseProfile="tiny" id="Capa_1" xmlns="http://www.w3.org/2000/svg" xmlns:xlink="http://www.w3.org/1999/xlink"
	 x="0px" y="0px" width="595.279px" height="841.891px" viewBox="0 0 595.279 841.891" xml:space="preserve">
<g>
	<path fill="#354106" d="M565.516,162.99h-69.449v-29.764c0-5.486-4.435-9.921-9.921-9.921h-69.45c-5.486,0-9.921,4.435-9.921,9.921
		v29.764h-218.27v-29.764c0-5.486-4.435-9.921-9.921-9.921h-69.449c-5.486,0-9.922,4.435-9.922,9.921v29.764H29.764
		c-5.486,0-9.921,4.435-9.921,9.921v109.135v426.618c0,5.486,4.435,9.921,9.921,9.921h535.752c5.486,0,9.922-4.435,9.922-9.921
		V282.046V172.912C575.438,167.425,571.002,162.99,565.516,162.99z M426.617,143.147h49.606v29.764v29.764h-49.606v-29.764V143.147z
		 M119.056,143.147h49.606v29.764v29.764h-49.606v-29.764V143.147z M39.686,182.833h59.527v29.764c0,5.486,4.436,9.921,9.922,9.921
		h69.449c5.486,0,9.921-4.435,9.921-9.921v-29.764h218.27v29.764c0,5.486,4.435,9.921,9.921,9.921h69.45
		c5.486,0,9.921-4.435,9.921-9.921v-29.764h59.528v89.292H39.686V182.833z M39.686,698.742V291.968h515.909v406.774H39.686z"/>
	<path fill="#354106" d="M377.011,351.496h-69.45h-19.842H218.27h-19.843h-89.292v89.292v19.843v69.449v19.843v89.292h89.292h19.843
		h69.449h19.842h69.45h19.843h89.292v-89.292V530.08v-69.449v-19.843v-89.292h-89.292H377.011z M307.561,371.338h69.45v69.45h-69.45
		V371.338z M377.011,530.08h-69.45v-69.449h69.45V530.08z M218.27,460.631h69.449v69.449H218.27V460.631z M218.27,371.338h69.449
		v69.45H218.27V371.338z M128.978,371.338h69.449v69.45h-69.449V371.338z M128.978,460.631h69.449v69.449h-69.449V460.631z
		 M198.427,619.372h-69.449v-69.449h69.449V619.372z M287.719,619.372H218.27v-69.449h69.449V619.372z M377.011,619.372h-69.45
		v-69.449h69.45V619.372z M466.303,619.372h-69.449v-69.449h69.449V619.372z M466.303,530.08h-69.449v-69.449h69.449V530.08z
		 M466.303,371.338v69.45h-69.449v-69.45H466.303z"/>
</g>
</svg>
