<?xml version="1.0" encoding="utf-8"?>
<!-- Generator: Adobe Illustrator 16.0.0, SVG Export Plug-In . SVG Version: 6.00 Build 0)  -->
<svg version="1.2" baseProfile="tiny" id="Capa_1" xmlns="http://www.w3.org/2000/svg" xmlns:xlink="http://www.w3.org/1999/xlink"
	 x="0px" y="0px" width="595.279px" height="841.891px" viewBox="0 0 595.279 841.891" xml:space="preserve">
<g>
	<path fill="#354106" d="M524.654,335.185c-5.579,0-10.09,4.51-10.09,10.089v322.864H20.179V173.752h494.385v10.089
		c0,5.58,4.511,10.09,10.09,10.09s10.09-4.51,10.09-10.09v-30.269H0v534.743h534.743V345.274
		C534.743,339.694,530.233,335.185,524.654,335.185z"/>
	<path fill="#354106" d="M592.323,196.888c-3.944-3.945-10.321-3.945-14.267,0L272.416,502.528L140.547,370.659
		c-3.945-3.945-10.322-3.945-14.267,0c-3.945,3.945-3.945,10.321,0,14.267l139.003,139.003c1.967,1.968,4.55,2.956,7.133,2.956
		s5.166-0.988,7.134-2.956l312.773-312.774C596.269,207.209,596.269,200.833,592.323,196.888z"/>
</g>
</svg>
