<?xml version="1.0" encoding="utf-8"?>
<!-- Generator: Adobe Illustrator 16.0.0, SVG Export Plug-In . SVG Version: 6.00 Build 0)  -->
<!DOCTYPE svg PUBLIC "-//W3C//DTD SVG 1.1//EN" "http://www.w3.org/Graphics/SVG/1.1/DTD/svg11.dtd">
<svg version="1.1" id="Capa_1" xmlns="http://www.w3.org/2000/svg" xmlns:xlink="http://www.w3.org/1999/xlink" x="0px" y="0px"
	 width="595.279px" height="841.891px" viewBox="0 0 595.279 841.891" enable-background="new 0 0 595.279 841.891"
	 xml:space="preserve">
<g>
	<path fill="#354106" d="M339.406,371.166c-0.3-0.158-0.601-0.318-0.898-0.471C338.805,370.848,339.106,371.008,339.406,371.166z"/>
	<path fill="#354106" d="M319.848,364.297c-0.163-0.027-0.318-0.053-0.474-0.078C319.53,364.244,319.685,364.27,319.848,364.297z"/>
	<path fill="#354106" d="M324.095,365.203c-0.176-0.045-0.348-0.086-0.519-0.129C323.747,365.117,323.919,365.158,324.095,365.203z"
		/>
	<path fill="#354106" d="M322.271,364.771c-0.166-0.035-0.329-0.07-0.491-0.104C321.942,364.701,322.105,364.736,322.271,364.771z"
		/>
	<path fill="#354106" d="M323.162,364.975c-0.171-0.039-0.339-0.078-0.507-0.115C322.823,364.896,322.991,364.936,323.162,364.975z"
		/>
	<path fill="#354106" d="M320.615,364.436c-0.162-0.031-0.319-0.059-0.477-0.088C320.295,364.377,320.452,364.404,320.615,364.436z"
		/>
	<path fill="#354106" d="M321.418,364.592c-0.165-0.033-0.323-0.064-0.483-0.096C321.095,364.527,321.253,364.559,321.418,364.592z"
		/>
	<path fill="#354106" d="M303.669,361.019c-0.229-0.134-0.465-0.257-0.688-0.399C303.204,360.762,303.439,360.885,303.669,361.019z"
		/>
	<path fill="#354106" d="M329.314,366.766c-0.201-0.07-0.4-0.139-0.598-0.205C328.913,366.627,329.113,366.695,329.314,366.766z"/>
	<path fill="#354106" d="M328.198,366.391c-0.196-0.064-0.391-0.127-0.584-0.188C327.808,366.264,328.003,366.326,328.198,366.391z"
		/>
	<path fill="#354106" d="M330.463,367.174c-0.209-0.076-0.417-0.152-0.623-0.225C330.046,367.021,330.254,367.098,330.463,367.174z"
		/>
	<path fill="#354106" d="M326.075,365.738c-0.186-0.053-0.369-0.104-0.551-0.154C325.706,365.635,325.89,365.686,326.075,365.738z"
		/>
	<path fill="#354106" d="M327.124,366.051c-0.192-0.059-0.384-0.117-0.573-0.172C326.74,365.934,326.932,365.992,327.124,366.051z"
		/>
	<path fill="#354106" d="M325.068,365.457c-0.182-0.049-0.359-0.096-0.538-0.143C324.707,365.361,324.886,365.408,325.068,365.457z"
		/>
	<path fill="#354106" d="M316.699,363.863c-0.151-0.014-0.296-0.027-0.431-0.039C316.404,363.836,316.548,363.85,316.699,363.863z"
		/>
	<path fill="#354106" d="M314.942,363.742c-0.058-0.002-0.107-0.004-0.147-0.004C314.834,363.738,314.885,363.74,314.942,363.742z"
		/>
	<path fill="#354106" d="M315.158,363.75c-0.071-0.004-0.136-0.006-0.192-0.008C315.022,363.744,315.088,363.746,315.158,363.75z"/>
	<path fill="#354106" d="M313.118,363.732c-0.309-0.008-0.615-0.021-0.92-0.043C312.504,363.711,312.81,363.725,313.118,363.732z"/>
	<path fill="#354106" d="M311.143,363.576c-0.301-0.039-0.603-0.08-0.899-0.133C310.541,363.496,310.841,363.537,311.143,363.576z"
		/>
	<path fill="#354106" d="M307.304,362.68c-0.277-0.096-0.557-0.186-0.83-0.291C306.747,362.496,307.027,362.584,307.304,362.68z"/>
	<path fill="#354106" d="M315.437,363.764c-0.083-0.006-0.162-0.01-0.232-0.012C315.275,363.754,315.355,363.758,315.437,363.764z"
		/>
	<path fill="#354106" d="M316.201,363.818c-0.121-0.01-0.237-0.02-0.345-0.027C315.964,363.799,316.08,363.809,316.201,363.818z"/>
	<path fill="#354106" d="M318.466,364.078c-0.654-0.094-1.234-0.162-1.731-0.211C317.232,363.916,317.812,363.984,318.466,364.078z"
		/>
	<path fill="#354106" d="M315.784,363.785c-0.1-0.006-0.195-0.014-0.282-0.018C315.589,363.771,315.685,363.779,315.784,363.785z"/>
	<path fill="#354106" d="M301.911,359.868c-0.18-0.132-0.367-0.25-0.543-0.388C301.544,359.618,301.732,359.736,301.911,359.868z"/>
	<path fill="#354106" d="M305.458,361.945c-0.258-0.117-0.52-0.227-0.771-0.355C304.94,361.719,305.2,361.828,305.458,361.945z"/>
	<path fill="#354106" d="M319.133,364.18c-0.185-0.029-0.36-0.057-0.534-0.082C318.773,364.123,318.948,364.15,319.133,364.18z"/>
	<path fill="#354106" d="M411.722,460.293c-0.009,0-0.018,0-0.026,0C411.704,460.293,411.712,460.293,411.722,460.293z"/>
	<path fill="#354106" d="M402.736,457.361c-0.156-0.096-0.307-0.199-0.46-0.301C402.429,457.162,402.579,457.266,402.736,457.361z"
		/>
	<path fill="#354106" d="M404.293,458.234c-0.007-0.004-0.015-0.006-0.021-0.01C404.28,458.229,404.286,458.23,404.293,458.234z"/>
	<path fill="#354106" d="M406.406,459.127c-0.174-0.062-0.349-0.121-0.521-0.189C406.057,459.006,406.232,459.064,406.406,459.127z"
		/>
	<path fill="#354106" d="M399.822,455.176c-0.137-0.123-0.277-0.242-0.412-0.371C399.544,454.934,399.685,455.053,399.822,455.176z"
		/>
	<path fill="#354106" d="M408.172,459.682c-0.199-0.053-0.397-0.107-0.596-0.166C407.775,459.574,407.972,459.629,408.172,459.682z"
		/>
	<path fill="#354106" d="M401.259,456.355c-0.165-0.123-0.328-0.248-0.49-0.377C400.931,456.107,401.093,456.232,401.259,456.355z"
		/>
	<path fill="#354106" d="M409.925,460.066c-0.182-0.031-0.36-0.072-0.54-0.107C409.566,459.994,409.743,460.035,409.925,460.066z"/>
	<path fill="#354106" d="M417.802,459.822c-0.187,0.043-0.375,0.076-0.562,0.113C417.428,459.898,417.615,459.865,417.802,459.822z"
		/>
	<path fill="#354106" d="M415.958,460.156c-0.21,0.029-0.42,0.055-0.631,0.076C415.538,460.211,415.747,460.186,415.958,460.156z"/>
	<path fill="#354106" d="M309.201,363.223c-0.292-0.068-0.583-0.133-0.871-0.215C308.618,363.09,308.909,363.154,309.201,363.223z"
		/>
	<path fill="#354106" d="M398.168,453.527c0-0.002-0.001-0.002-0.001-0.002S398.168,453.525,398.168,453.527z"/>
	<path fill="#354106" d="M414.056,460.322c-0.188,0.008-0.377,0.02-0.564,0.023C413.679,460.342,413.866,460.33,414.056,460.322z"/>
	<path fill="#354106" d="M490.753,499.239v-0.188V267.313c0-25.881-18.771-43.27-46.709-43.27c-4.89,0-9.636,0.561-14.107,1.666
		l-12.4,3.066v-12.773v-16.457c0-25.412-18.336-41.832-46.712-41.832c-6.769,0-13.104,0.956-18.829,2.84l-8.184,2.694l-3.875-7.696
		c-7.116-14.138-22.541-22.246-42.317-22.246c-19.775,0-35.204,8.109-42.331,22.249l-3.876,7.689l-8.18-2.691
		c-5.727-1.885-12.062-2.841-18.829-2.841c-28.376,0-46.712,16.42-46.712,41.832v82.791v12.773l-12.4-3.064
		c-4.466-1.105-9.212-1.664-14.106-1.664c-27.94,0-46.712,17.388-46.712,43.268v0.021v0.49c0,2.019,0.003,10.025,0.007,21.631
		c0.013,37.652,0.039,113.16,0.039,145.08c0,0.232,0.196,23.564,17.155,53.359c7.568,13.293,17.142,24.408,28.455,33.035
		c14.563,11.105,32.064,18.051,52.018,20.643l8.711,1.133v8.785v80.66c0,5.568,4.532,10.1,10.102,10.1
		c5.568,0,10.099-4.531,10.099-10.1v-99.502c0-5.57-4.53-10.102-10.099-10.102c-18.101,0-34.138-3.648-47.667-10.846
		c-13.726-7.299-24.953-18.27-33.369-32.607c-11.244-19.148-15.25-36.752-15.25-46.84V333.646c0-14.658,9.663-23.066,26.51-23.066
		c16.845,0,26.506,8.408,26.506,23.066v69.246c0,2.742,1.135,5.402,3.115,7.295c1.893,1.812,4.35,2.809,6.916,2.809
		c0.156,0,0.313-0.004,0.471-0.012v0.001c0.183-0.009,0.365-0.015,0.551-0.015c0.58,0,14.422,0.111,31.393,9.695
		c24.91,14.07,44.818,41.736,57.574,80.008c1.379,4.135,5.229,6.914,9.58,6.914c1.077,0,2.152-0.176,3.194-0.523
		c2.562-0.854,4.637-2.654,5.844-5.066c1.206-2.414,1.401-5.152,0.548-7.711c-10.93-32.793-26.47-58.473-46.188-76.326
		c-16.988-15.381-33.965-21.959-45.217-24.769l-7.577-1.893v-7.81V199.544c0-2.867,0-8.833,4.53-14.022
		c4.469-5.12,11.657-7.608,21.978-7.608c10.319,0,17.509,2.488,21.977,7.608c4.529,5.189,4.529,11.155,4.529,14.022v109.695
		c0,5.57,4.531,10.102,10.101,10.102c5.568,0,10.1-4.531,10.1-10.102V175.137c0-2.866,0-8.832,4.529-14.021
		c4.469-5.12,11.658-7.609,21.978-7.609s17.508,2.489,21.977,7.609c4.529,5.189,4.529,11.155,4.529,14.021v134.103
		c0,5.57,4.531,10.102,10.102,10.102c5.569,0,10.101-4.531,10.101-10.102V199.544c0-2.867,0-8.833,4.529-14.022
		c4.469-5.12,11.657-7.608,21.977-7.608c10.32,0,17.509,2.488,21.978,7.608c4.529,5.189,4.529,11.155,4.529,14.022v142.863
		c0,5.569,4.531,10.101,10.102,10.101s10.102-4.531,10.102-10.101v-75.094c0-14.659,9.662-23.066,26.508-23.066
		c16.856,0,26.523,8.407,26.523,23.066v233.174c0.065,2.133,0.178,11.324-2.123,23.123c-3.376,17.314-10.461,32.074-20.49,42.686
		c-14.16,14.986-34.741,22.586-61.172,22.586c-5.57,0-10.102,4.531-10.102,10.102v99.502c0,5.568,4.531,10.1,10.102,10.1
		c5.569,0,10.1-4.531,10.1-10.1v-80.68v-8.758l8.681-1.156c23.433-3.117,42.635-12.443,57.073-27.721
		c29.134-30.828,28.312-75.725,28.122-80.742L490.753,499.239z"/>
	<path fill="#354106" d="M335.342,369.17c-0.232-0.105-0.466-0.211-0.695-0.312C334.876,368.959,335.11,369.064,335.342,369.17z"/>
	<path fill="#354106" d="M397.046,452.119c-0.109-0.15-0.211-0.309-0.316-0.461C396.835,451.811,396.937,451.969,397.046,452.119z"
		/>
	<path fill="#354106" d="M337.99,370.436c-0.265-0.133-0.53-0.268-0.793-0.395C337.46,370.168,337.726,370.303,337.99,370.436z"/>
	<path fill="#354106" d="M314.698,363.736c0.021,0,0.047,0,0.081,0.002c-0.022,0-0.05-0.002-0.065-0.002
		C314.704,363.736,314.706,363.736,314.698,363.736z"/>
	<path fill="#354106" d="M332.843,368.094c-0.22-0.09-0.439-0.18-0.656-0.266C332.404,367.914,332.624,368.004,332.843,368.094z"/>
	<path fill="#354106" d="M334.073,368.609c-0.225-0.096-0.449-0.193-0.671-0.285C333.624,368.416,333.849,368.514,334.073,368.609z"
		/>
	<path fill="#354106" d="M336.648,369.777c-0.247-0.117-0.494-0.236-0.739-0.35C336.154,369.541,336.401,369.66,336.648,369.777z"/>
	<path fill="#354106" d="M341.19,372.139c-0.453-0.256-0.903-0.504-1.351-0.744C340.286,371.635,340.737,371.883,341.19,372.139z"/>
	<path fill="#354106" d="M395.127,448.879c-0.083-0.174-0.17-0.344-0.248-0.521C394.957,448.535,395.044,448.705,395.127,448.879z"
		/>
	<path fill="#354106" d="M396.036,450.584c-0.109-0.182-0.215-0.365-0.319-0.553C395.822,450.219,395.927,450.402,396.036,450.584z"
		/>
	<path fill="#354106" d="M331.64,367.617c-0.215-0.084-0.43-0.166-0.643-0.246C331.21,367.451,331.425,367.533,331.64,367.617z"/>
</g>
</svg>
