<?xml version="1.0" encoding="utf-8"?>
<!-- Generator: Adobe Illustrator 16.0.0, SVG Export Plug-In . SVG Version: 6.00 Build 0)  -->
<!DOCTYPE svg PUBLIC "-//W3C//DTD SVG 1.1//EN" "http://www.w3.org/Graphics/SVG/1.1/DTD/svg11.dtd">
<svg version="1.1" id="Capa_1" xmlns="http://www.w3.org/2000/svg" xmlns:xlink="http://www.w3.org/1999/xlink" x="0px" y="0px"
	 width="595.279px" height="841.891px" viewBox="0 0 595.279 841.891" enable-background="new 0 0 595.279 841.891"
	 xml:space="preserve">
<g>
	<path fill="#354106" d="M299.58,253.761c-41.952,0-76.099,34.146-76.099,76.099c0,41.952,34.146,76.099,76.099,76.099
		s76.101-34.147,76.101-76.099C375.68,287.907,341.532,253.761,299.58,253.761z M299.58,384.216
		c-29.972,0-54.355-24.384-54.355-54.356c0-29.972,24.385-54.356,54.355-54.356c29.974,0,54.356,24.384,54.356,54.356
		C353.936,359.832,329.553,384.216,299.58,384.216z"/>
	<path fill="#354106" d="M445.072,184.369c-39.376-39.376-91.731-61.064-147.415-61.064c-55.693,0-108.039,21.688-147.415,61.064
		c-72.87,72.859-81.926,209.947-19.612,293.004l167.027,241.212L464.433,477.71C526.997,394.316,517.942,257.229,445.072,184.369z
		 M446.801,465.001L297.656,680.384l-149.383-215.72c-56.521-75.36-48.421-199.163,17.351-264.923
		c35.268-35.267,82.154-54.694,132.032-54.694c49.877,0,96.767,19.427,132.043,54.694
		C495.471,265.501,503.57,389.304,446.801,465.001z"/>
</g>
</svg>
