<?xml version="1.0" encoding="utf-8"?>
<!-- Generator: Adobe Illustrator 16.0.0, SVG Export Plug-In . SVG Version: 6.00 Build 0)  -->
<!DOCTYPE svg PUBLIC "-//W3C//DTD SVG 1.1//EN" "http://www.w3.org/Graphics/SVG/1.1/DTD/svg11.dtd">
<svg version="1.1" id="Capa_1" xmlns="http://www.w3.org/2000/svg" xmlns:xlink="http://www.w3.org/1999/xlink" x="0px" y="0px"
	 width="479.754px" height="479.754px" viewBox="0 0 479.754 479.754" enable-background="new 0 0 479.754 479.754"
	 xml:space="preserve">
<g>
	<g>
		<path fill="#38411D" d="M468.146,25.092H129.638c-6.411,0-11.608,5.198-11.608,11.608c0,6.413,5.197,11.61,11.608,11.61h326.898
			v383.133H129.638c-6.411,0-11.608,5.195-11.608,11.61c0,6.408,5.197,11.606,11.608,11.606h338.508
			c6.41,0,11.607-5.198,11.607-11.606V36.701C479.754,30.291,474.557,25.092,468.146,25.092z"/>
		<path fill="#38411D" d="M176.793,310.41c-4.535,4.535-4.535,11.883,0,16.419c2.268,2.267,5.24,3.399,8.211,3.399
			c2.969,0,5.938-1.135,8.206-3.399l71.589-71.588c4.536-4.535,4.536-11.886,0-16.417l-71.589-71.598
			c-4.534-4.538-11.882-4.538-16.417,0c-4.535,4.528-4.535,11.881,0,16.414l51.771,51.781H11.61C5.199,235.42,0,240.62,0,247.03
			c0,6.411,5.199,11.61,11.609,11.61h216.954L176.793,310.41z"/>
	</g>
</g>
</svg>
