<?xml version="1.0" encoding="utf-8"?>
<!-- Generator: Adobe Illustrator 16.0.0, SVG Export Plug-In . SVG Version: 6.00 Build 0)  -->
<!DOCTYPE svg PUBLIC "-//W3C//DTD SVG 1.1//EN" "http://www.w3.org/Graphics/SVG/1.1/DTD/svg11.dtd">
<svg version="1.1" id="Layer_1" xmlns="http://www.w3.org/2000/svg" xmlns:xlink="http://www.w3.org/1999/xlink" x="0px" y="0px"
	 width="595.279px" height="841.891px" viewBox="0 0 595.279 841.891" enable-background="new 0 0 595.279 841.891"
	 xml:space="preserve">
<g>
	<path fill="none" d="M297.64,158.321c-143.567,0-262.624,119.056-262.624,262.624c0,143.567,119.057,262.624,262.624,262.624
		c143.568,0,262.624-119.057,262.624-262.624C560.264,277.377,441.208,158.321,297.64,158.321z M395.686,455.961
		c0,0-7.003,3.502-10.505,3.502c-3.501,0-10.504,0-14.005-3.502l-66.531-66.531c-0.438-0.438-0.931-0.821-1.471-1.149
		c-0.202-0.123-0.417-0.23-0.632-0.337c-0.072-0.037-0.14-0.08-0.214-0.114c-1.466-0.684-3.211-1.026-5.125-1.026
		c-3.064,0-6.565,0.875-10.067,2.626l-66.531,66.531c-1.81,1.811-3.857,3.144-6.014,4.018c-3.651,1.479-7.623,1.619-11.334,0.418
		c-2.58-0.834-5.034-2.307-7.163-4.436c-7.003-7.003-7.003-17.509,0-24.512l66.531-66.531c17.507-17.509,49.021-17.509,66.53,0
		l66.531,66.531C402.689,438.452,402.689,448.958,395.686,455.961z"/>
	<path fill="#38411D" d="M566.39,307.342c-14.673-34.736-35.687-65.922-62.456-92.692c-26.77-26.77-57.955-47.783-92.691-62.456
		c-35.955-15.188-74.177-22.89-113.603-22.89c-39.426,0-77.647,7.701-113.603,22.89c-34.735,14.673-65.921,35.687-92.691,62.456
		c-26.77,26.77-47.783,57.956-62.456,92.692C13.701,343.297,6,381.519,6,420.945c0,39.426,7.701,77.647,22.89,113.603
		c14.673,34.736,35.687,65.922,62.456,92.691s57.956,47.783,92.691,62.456c35.956,15.188,74.177,22.89,113.603,22.89
		c39.426,0,77.647-7.701,113.603-22.89c34.736-14.673,65.922-35.687,92.691-62.456s47.783-57.955,62.456-92.691
		c15.188-35.955,22.89-74.177,22.89-113.603C589.28,381.519,581.578,343.297,566.39,307.342z M544.935,524.906
		c-13.644,31.911-33.125,60.654-57.902,85.432c-24.776,24.777-53.52,44.258-85.431,57.902
		c-33.101,14.153-68.078,21.329-103.962,21.329c-35.883,0-70.861-7.176-103.961-21.329c-31.911-13.645-60.654-33.125-85.431-57.902
		c-24.777-24.777-44.258-53.521-57.902-85.432c-14.153-33.1-21.329-68.077-21.329-103.961s7.176-70.861,21.329-103.962
		c13.644-31.911,33.125-60.654,57.902-85.431c24.777-24.777,53.521-44.258,85.431-57.902c33.1-14.153,68.078-21.329,103.961-21.329
		c35.884,0,70.861,7.176,103.962,21.329c31.911,13.644,60.654,33.125,85.431,57.902c24.777,24.777,44.259,53.52,57.902,85.431
		c14.153,33.101,21.329,68.078,21.329,103.962S559.088,491.807,544.935,524.906z"/>
	<path fill="#38411D" d="M324.912,369.161c-7.229-7.229-17.808-11.375-29.023-11.375c-11.216,0-21.794,4.146-29.021,11.374
		l-66.532,66.531c-4.643,4.644-4.643,11.384,0,16.027c2.253,2.253,5.1,3.494,8.013,3.494s5.76-1.241,8.013-3.494l66.531-66.531
		l0.688-0.688l0.871-0.436c4.265-2.132,8.673-3.259,12.75-3.259c4.775,0,8.815,1.515,11.684,4.382l66.531,66.532
		c1.744,1.744,7.779,1.744,9.763,1.744c1.032-0.033,4.143-1.138,6.894-2.421c4.001-4.604,3.791-10.928-0.631-15.351L324.912,369.161
		z"/>
	<path d="M302.542,387.944c-0.072-0.037-0.14-0.08-0.214-0.114C302.403,387.865,302.47,387.908,302.542,387.944z"/>
</g>
</svg>
