<?xml version="1.0" encoding="utf-8"?>
<!-- Generator: Adobe Illustrator 16.0.0, SVG Export Plug-In . SVG Version: 6.00 Build 0)  -->
<svg version="1.2" baseProfile="tiny" id="Layer_1" xmlns="http://www.w3.org/2000/svg" xmlns:xlink="http://www.w3.org/1999/xlink"
	 x="0px" y="0px" width="595.28px" height="841.89px" viewBox="0 0 595.28 841.89" xml:space="preserve">
<path fill="#37411A" d="M297.64,455.451c141.072,0,256.571,111.587,262.863,251.134h22.53
	c-2.947-71.792-32.304-138.865-83.415-189.979c-31.038-31.038-67.555-53.944-108.533-68.085l-22.46-7.75l19.567-13.477
	c43.531-29.981,69.521-79.296,69.521-131.917c0-88.265-71.809-160.073-160.073-160.073s-160.073,71.809-160.073,160.073
	c0,52.62,25.989,101.935,69.521,131.917l19.567,13.477l-22.46,7.75c-40.978,14.141-77.494,37.048-108.534,68.085
	C44.55,567.719,15.193,634.792,12.245,706.585h22.531C41.069,567.038,156.567,455.451,297.64,455.451z M160.073,295.378
	c0-75.854,61.712-137.567,137.566-137.567s137.567,61.712,137.567,137.567c0,75.855-61.713,137.567-137.567,137.567
	S160.073,371.233,160.073,295.378z"/>
<g>
</g>
<g>
</g>
<g>
</g>
<g>
</g>
<g>
</g>
<g>
</g>
</svg>
