<?xml version="1.0" encoding="utf-8"?>
<!-- Generator: Adobe Illustrator 16.0.0, SVG Export Plug-In . SVG Version: 6.00 Build 0)  -->
<!DOCTYPE svg PUBLIC "-//W3C//DTD SVG 1.1//EN" "http://www.w3.org/Graphics/SVG/1.1/DTD/svg11.dtd">
<svg version="1.1" id="Layer_1" xmlns="http://www.w3.org/2000/svg" xmlns:xlink="http://www.w3.org/1999/xlink" x="0px" y="0px"
	 width="2002px" height="966px" viewBox="0 0 2002 966" enable-background="new 0 0 2002 966" xml:space="preserve">
<g id="Layer_1_1_">
	<path fill="#F4CCC3" d="M1485.505,961.5l-3.398-345.516c0,0,0-22.66,18.127-39.086c18.127-16.43,26.058-24.357,35.688-43.617
		c9.631-19.258,8.499-28.891,17.562-39.086s6.089-8.072,12.461-15.721c6.373-7.646-6.797-11.896-14.02-10.621
		c-7.223,1.275-19.542,12.746-24.216,21.243c-4.673,8.496-8.072,17.418-12.32,19.543c-4.248,2.123-17.843-9.348-10.621-39.085
		c7.224-29.738,22.517-76.472,24.216-82.844s6.758-21.667-4.479-23.366c-11.238-1.699-18.036,13.595-21.436,25.065
		c-3.397,11.471-12.745,43.333-14.443,46.732c-1.699,3.398-4.311,13.596-7.252,14.021c-2.944,0.425-8.894,6.372-7.617-24.642
		c1.274-31.014,0.496-73.072-0.177-76.896c-0.674-3.823-1.523-12.32-6.196-12.32s-12.32,0-14.444,11.471
		c-2.124,11.471-4.674,60.327-5.099,72.223c-0.425,11.896,0,25.915-4.673,28.89c-4.674,2.975-9.348,5.099-15.719-17.419
		c-6.373-22.517-20.817-66.7-24.643-68.824c-3.823-2.125-17.418-3.399-14.443,10.621c2.974,14.02,17.418,68.824,18.692,73.923
		c1.274,5.098,2.549,15.719-3.399,13.17c-5.946-2.55-13.595-12.32-18.691-21.667c-5.1-9.348-16.569-34.837-22.941-34.837
		c-6.373,0-14.02,2.123-10.195,11.896c3.823,9.772,17.418,39.935,22.517,51.405c5.098,11.47,8.497,13.596,9.347,27.615
		c0.851,14.02,9.771,52.68,15.719,70.947c5.948,18.27,2.55,90.492,2.55,90.492s-19.968,173.334-19.968,175.033
		c0,0.549-16.986,139.258-16.986,139.258s119.318,0.744,119.798-0.5"/>
	<path fill="#F4CCC3" d="M1121.596,820.542c0,0-5.902-186.738-3.221-201.227c2.686-14.488,0-21.467,17.172-37.025
		c17.172-15.564,24.684-23.076,33.807-41.32s8.051-27.367,16.636-37.023c8.585-9.66,5.77-7.65,11.807-14.895
		c6.036-7.244-6.44-11.269-13.281-10.061c-6.842,1.207-18.513,12.073-22.94,20.124c-4.427,8.049-7.646,16.5-11.671,18.512
		c-4.023,2.012-16.902-8.854-10.062-37.026c6.843-28.172,21.33-72.44,22.939-78.479c1.609-6.037,6.401-20.525-4.245-22.135
		c-10.646-1.609-17.085,12.878-20.305,23.747c-3.22,10.864-12.074,41.05-13.685,44.27c-1.609,3.22-4.082,12.879-6.869,13.28
		c-2.789,0.402-8.424,6.037-7.217-23.342c1.209-29.38,0.471-69.223-0.166-72.845c-0.64-3.622-1.443-11.671-5.87-11.671
		c-4.428,0-11.671,0-13.684,10.866c-2.014,10.866-4.428,57.147-4.83,68.417c-0.401,11.269,0,24.55-4.427,27.366
		c-4.428,2.816-8.854,4.83-14.892-16.501c-6.036-21.329-19.72-63.186-23.343-65.197c-3.621-2.012-16.5-3.22-13.684,10.061
		c2.817,13.28,16.501,65.198,17.708,70.027c1.207,4.83,2.415,14.891-3.22,12.477c-5.634-2.414-12.878-11.672-17.708-20.524
		c-4.829-8.854-15.696-33.002-21.732-33.002s-13.28,2.013-9.659,11.269c3.623,9.258,16.502,37.831,21.331,48.697
		c4.828,10.867,8.05,12.878,8.854,26.16s9.256,49.904,14.891,67.209c5.635,17.307,8.854,23.746,2.415,85.723
		c-6.438,61.98-18.916,314.127-18.916,315.736s100.804,2.125,100.804,2.125"/>
	<path fill="#F8D7BD" d="M1251.072,823.486c0,0,9.034-266.893,4.931-287.6c-4.109-20.705,0-30.678-26.282-52.917
		c-26.286-22.243-37.782-32.979-51.747-59.054c-13.964-26.075-12.323-39.114-25.463-52.918
		c-13.143-13.805-8.83-10.933-18.071-21.286c-9.238-10.353,9.859-16.106,20.329-14.379c10.474,1.726,28.336,17.256,35.113,28.76
		c6.774,11.504,11.705,23.582,17.863,26.459c6.161,2.875,25.873-12.656,15.401-52.919c-10.474-40.265-32.649-103.536-35.114-112.164
		c-2.462-8.628-9.799-29.336,6.497-31.637c16.297-2.3,26.152,18.407,31.08,33.938c4.928,15.529,18.481,58.669,20.946,63.271
		c2.463,4.602,6.246,18.407,10.515,18.98c4.27,0.577,12.893,8.628,11.044-33.36c-1.85-41.989-0.718-98.934,0.255-104.111
		c0.979-5.177,2.212-16.68,8.986-16.68c6.776,0,17.864,0,20.943,15.53c3.081,15.53,6.776,81.677,7.393,97.784
		c0.617,16.104,0,35.086,6.776,39.113c6.777,4.026,13.553,6.902,22.793-23.584c9.238-30.483,30.185-90.305,35.729-93.181
		c5.545-2.876,25.256-4.602,20.944,14.379c-4.312,18.98-25.256,93.184-27.104,100.085c-1.848,6.904-3.694,21.283,4.93,17.83
		c8.623-3.45,19.712-16.68,27.104-29.334c7.392-12.654,24.024-47.167,33.263-47.167c9.24,0,20.329,2.877,14.785,16.105
		c-5.545,13.23-25.257,54.069-32.65,69.6c-7.389,15.529-12.319,18.405-13.551,37.388c-1.23,18.982-14.169,71.324-22.792,96.056
		c-8.624,24.734-13.554,33.939-3.696,122.519c9.856,88.582,48.778,401.039,48.778,403.338c0,2.301-168.901-3.332-168.901-3.332"/>
	<path fill="#945630" d="M1206.381,929.876c0,0,5.458-161.258,2.978-173.77c-2.481-12.512,0-18.535-15.88-31.975
		c-15.882-13.438-22.828-19.926-31.266-35.68c-8.438-15.756-7.446-23.633-15.386-31.975c-7.938-8.342-5.335-6.605-10.919-12.859
		c-5.582-6.256,5.957-9.732,12.282-8.689c6.329,1.041,17.122,10.426,21.218,17.377c4.093,6.951,7.072,14.248,10.792,15.986
		c3.725,1.736,15.635-7.645,9.307-31.973s-19.727-62.559-21.216-67.771c-1.488-5.215-5.92-17.727,3.926-19.115
		c9.847-1.391,15.801,11.121,18.779,20.506c2.977,9.383,11.166,35.447,12.654,38.229s3.774,11.123,6.354,11.469
		c2.578,0.35,7.789,5.213,6.673-20.156c-1.118-25.369-0.436-59.775,0.153-62.904c0.591-3.127,1.336-10.078,5.43-10.078
		c4.095,0,10.794,0,12.653,9.383c1.861,9.385,4.096,49.352,4.467,59.082c0.373,9.73,0,21.199,4.095,23.633
		c4.097,2.434,8.189,4.17,13.772-14.25c5.581-18.418,18.236-54.562,21.587-56.301s15.26-2.779,12.655,8.689
		c-2.605,11.467-15.262,56.301-16.377,60.471c-1.117,4.172-2.232,12.857,2.978,10.773c5.211-2.086,11.911-10.078,16.378-17.725
		c4.466-7.646,14.516-28.498,20.098-28.498c5.584,0,12.283,1.738,8.934,9.73c-3.35,7.994-15.26,32.67-19.728,42.053
		c-4.465,9.383-7.443,11.119-8.188,22.59c-0.743,11.469-8.562,43.096-13.771,58.039c-5.211,14.943-8.188,20.504-2.231,74.025
		c5.955,53.521,21.42,182.75,21.42,184.141s-94-0.668-94-0.668"/>
	<path fill="#A0BF27" d="M991.594,970.357c0,0,5.17-152.77,2.819-164.623c-2.352-11.854,0-17.561-15.044-30.289
		c-15.046-12.732-21.627-18.879-29.619-33.805c-7.993-14.926-7.055-22.389-14.574-30.291c-7.521-7.9-5.056-6.258-10.346-12.182
		c-5.287-5.926,5.645-9.221,11.637-8.23c5.996,0.986,16.221,9.877,20.101,16.463c3.877,6.586,6.7,13.498,10.226,15.145
		c3.526,1.646,14.811-7.244,8.814-30.291c-5.995-23.047-18.688-59.264-20.099-64.203c-1.41-4.938-5.608-16.793,3.719-18.107
		c9.328-1.316,14.969,10.535,17.791,19.426c2.819,8.889,10.578,33.582,11.989,36.215c1.409,2.637,3.575,10.539,6.019,10.865
		c2.442,0.33,7.379,4.938,6.321-19.094c-1.06-24.035-0.411-56.631,0.146-59.596c0.561-2.963,1.267-9.547,5.145-9.547
		c3.88,0,10.227,0,11.987,8.891c1.765,8.889,3.881,46.752,4.231,55.971c0.354,9.219,0,20.084,3.879,22.389
		c3.881,2.307,7.759,3.951,13.048-13.5c5.287-17.449,17.277-51.689,20.45-53.336c3.174-1.646,14.456-2.635,11.989,8.23
		c-2.469,10.863-14.458,53.338-15.516,57.289c-1.059,3.951-2.114,12.182,2.82,10.207c4.938-1.977,11.284-9.551,15.516-16.793
		c4.232-7.242,13.751-26.998,19.039-26.998c5.29,0,11.639,1.646,8.463,9.221c-3.173,7.572-14.456,30.949-18.688,39.838
		c-4.23,8.889-7.053,10.533-7.758,21.4c-0.704,10.865-8.109,40.826-13.047,54.982c-4.938,14.158-7.758,19.426-2.114,70.129
		c5.642,50.705,16.573,134.332,16.573,135.648c0,1.318-85.334,0-85.334,0"/>
</g>
<g id="Layer_2">
	<rect x="9.134" y="5.117" fill="none" stroke="#EFE5DF" stroke-miterlimit="10" width="1989.866" height="953.953"/>
</g>
</svg>
