<?xml version="1.0" encoding="utf-8"?>
<!-- Generator: Adobe Illustrator 16.0.0, SVG Export Plug-In . SVG Version: 6.00 Build 0)  -->
<svg version="1.2" baseProfile="tiny" xmlns="http://www.w3.org/2000/svg" xmlns:xlink="http://www.w3.org/1999/xlink" x="0px"
	 y="0px" width="2002px" height="965.999px" viewBox="0 0 2002 965.999" xml:space="preserve">
<g id="Layer_1">
	<path fill="#945630" d="M1485.505,961.5l-3.398-345.516c0,0,0-22.66,18.127-39.086c18.127-16.43,26.057-24.358,35.687-43.617
		c9.631-19.259,8.499-28.89,17.562-39.086c9.062-10.195,6.089-8.073,12.461-15.721c6.373-7.646-6.797-11.896-14.02-10.621
		c-7.222,1.275-19.542,12.746-24.216,21.242c-4.673,8.497-8.072,17.419-12.32,19.543s-17.843-9.347-10.621-39.085
		c7.223-29.739,22.517-76.472,24.216-82.844s6.758-21.667-4.48-23.366s-18.036,13.595-21.435,25.065
		c-3.398,11.471-12.745,43.333-14.444,46.733c-1.699,3.398-4.31,13.595-7.252,14.02c-2.944,0.425-8.893,6.372-7.617-24.641
		c1.274-31.014,0.496-73.073-0.177-76.896c-0.674-3.823-1.523-12.32-6.196-12.32s-12.32,0-14.444,11.471s-4.674,60.327-5.099,72.223
		s0,25.915-4.673,28.89c-4.674,2.974-9.347,5.098-15.719-17.419c-6.373-22.517-20.817-66.7-24.642-68.824
		c-3.823-2.125-17.418-3.399-14.444,10.621c2.974,14.02,17.419,68.824,18.693,73.923c1.274,5.098,2.549,15.719-3.399,13.17
		c-5.947-2.549-13.595-12.32-18.692-21.667c-5.099-9.347-16.569-34.837-22.941-34.837c-6.373,0-14.02,2.124-10.196,11.896
		s17.419,39.935,22.517,51.405s8.497,13.596,9.347,27.615s9.771,52.68,15.719,70.948c5.948,18.268,2.549,90.491,2.549,90.491
		s-19.967,173.335-19.967,175.034c0,0.549-16.987,139.257-16.987,139.257s119.319,0.745,119.798-0.5"/>
	<path fill="#F4CCC3" d="M1121.596,820.542c0,0-5.902-186.738-3.221-201.227c2.686-14.488,0-21.466,17.172-37.025
		c17.172-15.563,24.684-23.076,33.807-41.319c9.123-18.244,8.051-27.367,16.636-37.025c8.585-9.659,5.769-7.649,11.806-14.894
		c6.036-7.243-6.44-11.269-13.281-10.061c-6.842,1.207-18.513,12.073-22.94,20.123c-4.427,8.049-7.646,16.5-11.671,18.513
		c-4.024,2.012-16.903-8.854-10.062-37.026c6.843-28.172,21.33-72.441,22.94-78.479c1.609-6.037,6.401-20.525-4.245-22.135
		c-10.646-1.609-17.085,12.878-20.305,23.746c-3.22,10.865-12.074,41.05-13.685,44.27c-1.609,3.22-4.081,12.879-6.869,13.28
		c-2.789,0.403-8.423,6.037-7.216-23.342c1.208-29.379,0.47-69.222-0.166-72.844c-0.64-3.622-1.444-11.671-5.871-11.671
		s-11.671,0-13.683,10.866c-2.014,10.866-4.428,57.148-4.83,68.417c-0.402,11.269,0,24.55-4.427,27.366
		c-4.428,2.817-8.854,4.83-14.892-16.501c-6.036-21.329-19.72-63.185-23.342-65.197s-16.5-3.22-13.684,10.061
		c2.817,13.28,16.501,65.198,17.708,70.027c1.207,4.83,2.415,14.891-3.22,12.476c-5.634-2.414-12.878-11.671-17.708-20.524
		c-4.829-8.854-15.696-33.002-21.732-33.002s-13.281,2.013-9.659,11.269c3.623,9.257,16.501,37.831,21.331,48.697
		c4.828,10.866,8.049,12.878,8.854,26.16c0.805,13.281,9.256,49.904,14.891,67.209c5.634,17.306,8.854,23.745,2.415,85.723
		c-6.439,61.979-18.916,314.126-18.916,315.735s100.803,2.125,100.803,2.125"/>
	<path fill="#F8D7BD" d="M1251.072,823.486c0,0,9.034-266.892,4.93-287.599c-4.109-20.706,0-30.679-26.282-52.918
		c-26.286-22.243-37.782-32.98-51.747-59.054c-13.964-26.075-12.323-39.114-25.463-52.918c-13.142-13.805-8.83-10.933-18.071-21.286
		c-9.238-10.353,9.859-16.106,20.329-14.379c10.474,1.726,28.336,17.256,35.113,28.76c6.775,11.504,11.705,23.582,17.864,26.459
		c6.161,2.875,25.873-12.656,15.401-52.919c-10.474-40.265-32.649-103.536-35.114-112.164c-2.462-8.628-9.799-29.336,6.497-31.637
		c16.297-2.3,26.152,18.407,31.08,33.938c4.928,15.529,18.481,58.669,20.946,63.271c2.463,4.602,6.246,18.407,10.515,18.98
		c4.269,0.577,12.892,8.628,11.044-33.36c-1.85-41.989-0.718-98.934,0.255-104.111c0.979-5.177,2.211-16.68,8.986-16.68
		c6.776,0,17.864,0,20.943,15.53c3.081,15.53,6.777,81.677,7.393,97.784c0.617,16.104,0,35.086,6.776,39.113
		c6.778,4.026,13.553,6.902,22.793-23.584c9.239-30.483,30.185-90.305,35.729-93.181c5.545-2.876,25.256-4.602,20.944,14.379
		c-4.312,18.98-25.256,93.184-27.104,100.085c-1.848,6.904-3.695,21.283,4.929,17.83c8.623-3.45,19.712-16.68,27.105-29.334
		c7.392-12.654,24.024-47.167,33.263-47.167c9.24,0,20.329,2.877,14.785,16.105c-5.545,13.23-25.257,54.069-32.65,69.6
		c-7.389,15.529-12.32,18.405-13.551,37.388c-1.231,18.982-14.169,71.324-22.792,96.056c-8.624,24.734-13.554,33.938-3.696,122.518
		c9.856,88.582,48.778,401.039,48.778,403.339c0,2.301-168.902-3.333-168.902-3.333"/>
	<path fill="#A0BF27" d="M1206.381,929.877c0,0,5.458-161.258,2.978-173.77c-2.482-12.511,0-18.536-15.88-31.974
		c-15.882-13.439-22.828-19.927-31.266-35.681c-8.438-15.755-7.446-23.633-15.385-31.974c-7.939-8.341-5.335-6.605-10.919-12.86
		c-5.582-6.255,5.957-9.731,12.282-8.688c6.329,1.041,17.122,10.425,21.218,17.377c4.092,6.951,7.072,14.248,10.792,15.986
		c3.724,1.736,15.634-7.646,9.306-31.974c-6.328-24.328-19.726-62.558-21.216-67.771c-1.488-5.214-5.92-17.726,3.926-19.115
		c9.847-1.39,15.801,11.121,18.779,20.506c2.977,9.383,11.166,35.448,12.655,38.228c1.488,2.781,3.774,11.123,6.354,11.469
		c2.578,0.349,7.789,5.213,6.673-20.156c-1.118-25.37-0.435-59.776,0.153-62.905c0.591-3.127,1.336-10.078,5.43-10.078
		c4.095,0,10.794,0,12.653,9.384c1.862,9.384,4.096,49.35,4.467,59.082c0.373,9.73,0,21.199,4.095,23.632
		c4.097,2.434,8.189,4.171,13.772-14.25c5.581-18.418,18.237-54.562,21.587-56.3c3.351-1.738,15.26-2.78,12.655,8.688
		c-2.605,11.467-15.261,56.302-16.377,60.472c-1.117,4.171-2.232,12.858,2.978,10.773c5.211-2.085,11.911-10.079,16.378-17.725
		c4.466-7.646,14.515-28.498,20.097-28.498c5.584,0,12.284,1.738,8.934,9.731c-3.35,7.993-15.26,32.669-19.727,42.052
		c-4.465,9.384-7.444,11.12-8.188,22.591c-0.743,11.469-8.561,43.095-13.771,58.038c-5.211,14.944-8.188,20.505-2.232,74.025
		c5.955,53.522,21.42,182.751,21.42,184.141c0,1.391-94-0.667-94-0.667"/>
	<path fill="#9C5E35" d="M991.594,970.356c0,0,5.17-152.769,2.82-164.622c-2.352-11.853,0-17.561-15.044-30.29
		c-15.046-12.732-21.627-18.878-29.62-33.803c-7.993-14.926-7.054-22.389-14.574-30.291c-7.521-7.901-5.055-6.258-10.345-12.183
		c-5.288-5.926,5.644-9.22,11.636-8.23c5.996,0.986,16.221,9.876,20.101,16.462c3.877,6.586,6.7,13.498,10.225,15.146
		c3.527,1.645,14.811-7.244,8.815-30.291c-5.995-23.048-18.688-59.265-20.099-64.203c-1.41-4.939-5.608-16.793,3.719-18.109
		c9.328-1.316,14.969,10.536,17.791,19.427c2.819,8.889,10.578,33.582,11.989,36.215c1.409,2.636,3.575,10.538,6.019,10.865
		c2.442,0.33,7.379,4.938,6.321-19.095c-1.059-24.035-0.411-56.63,0.146-59.594c0.56-2.963,1.266-9.548,5.144-9.548
		c3.88,0,10.227,0,11.987,8.89c1.765,8.89,3.881,46.752,4.232,55.972c0.354,9.219,0,20.084,3.879,22.388
		c3.881,2.306,7.759,3.952,13.048-13.499c5.287-17.449,17.277-51.69,20.45-53.337c3.174-1.646,14.456-2.634,11.989,8.231
		c-2.469,10.863-14.458,53.338-15.515,57.288c-1.059,3.952-2.115,12.182,2.82,10.207c4.937-1.976,11.284-9.549,15.516-16.792
		s13.751-26.998,19.039-26.998c5.29,0,11.638,1.646,8.463,9.22c-3.173,7.572-14.456,30.949-18.688,39.838
		c-4.23,8.89-7.053,10.534-7.758,21.401c-0.704,10.865-8.109,40.826-13.047,54.983c-4.937,14.157-7.757,19.425-2.114,70.129
		c5.642,50.704,16.573,134.332,16.573,135.648c0,1.317-85.333,0-85.333,0"/>
</g>
<g id="Layer_2">
	<rect x="9.134" y="5.117" fill="none" stroke="#EFE5DF" stroke-miterlimit="10" width="1989.866" height="953.952"/>
</g>
</svg>
