<?xml version="1.0" encoding="utf-8"?>
<!-- Generator: Adobe Illustrator 16.0.0, SVG Export Plug-In . SVG Version: 6.00 Build 0)  -->
<!DOCTYPE svg PUBLIC "-//W3C//DTD SVG 1.1//EN" "http://www.w3.org/Graphics/SVG/1.1/DTD/svg11.dtd">
<svg version="1.1" id="Layer_1" xmlns="http://www.w3.org/2000/svg" xmlns:xlink="http://www.w3.org/1999/xlink" x="0px" y="0px"
	 width="595.279px" height="841.891px" viewBox="0 0 595.279 841.891" enable-background="new 0 0 595.279 841.891"
	 xml:space="preserve">
<g>
	<path fill="#38411D" d="M22.125,391.645c-0.149,0.071-0.299,0.14-0.45,0.207C21.826,391.785,21.976,391.716,22.125,391.645z"/>
	<path fill="#38411D" d="M10.233,392.247c-0.52-0.187-1.028-0.407-1.527-0.649C9.205,391.84,9.713,392.061,10.233,392.247z"/>
	<path fill="#38411D" d="M8.241,391.35c-0.339-0.179-0.673-0.366-1-0.571C7.568,390.984,7.902,391.171,8.241,391.35z"/>
	<path fill="#38411D" d="M13.448,393.013c-0.374-0.049-0.744-0.117-1.113-0.193C12.704,392.896,13.074,392.964,13.448,393.013z"/>
	<path fill="#38411D" d="M6.726,390.436c-0.301-0.206-0.595-0.424-0.882-0.653C6.132,390.012,6.425,390.229,6.726,390.436z"/>
	<path fill="#38411D" d="M11.817,392.714c-0.53-0.128-1.055-0.278-1.569-0.462C10.763,392.436,11.287,392.586,11.817,392.714z"/>
	<path fill="#38411D" d="M587.177,367.632L305.005,161.032c-2.151-1.575-4.698-2.408-7.365-2.408c-2.666,0-5.212,0.833-7.362,2.408
		L8.103,367.632c-5.547,4.062-6.756,11.878-2.695,17.424c2.34,3.195,6.106,5.103,10.073,5.103c2.658,0,5.2-0.833,7.353-2.409
		l273.034-199.912l1.772-1.298l1.772,1.298L572.448,387.75c2.15,1.576,4.692,2.408,7.352,2.408c3.968,0,7.732-1.908,10.071-5.103
		c1.969-2.687,2.771-5.979,2.263-9.27C591.624,372.496,589.865,369.6,587.177,367.632z"/>
	<path fill="#38411D" d="M23.396,390.967c-0.13,0.078-0.262,0.147-0.393,0.22C23.134,391.114,23.266,391.045,23.396,390.967z"/>
	<path fill="#38411D" d="M5.358,389.384c-0.295-0.256-0.579-0.529-0.857-0.81C4.78,388.855,5.063,389.128,5.358,389.384z"/>
	<path fill="#38411D" d="M4.111,388.183c-0.394-0.427-0.772-0.874-1.123-1.354C3.339,387.309,3.717,387.756,4.111,388.183z"/>
	<path fill="#38411D" d="M304.654,157.304c-4.562-2.323-10.004-2.226-14.5,0.267c2.327-1.291,4.904-1.947,7.487-1.947
		C300.047,155.624,302.452,156.184,304.654,157.304z"/>
	<path fill="#38411D" d="M17.683,392.997c-0.143,0.021-0.285,0.033-0.428,0.049C17.398,393.03,17.541,393.017,17.683,392.997z"/>
	<path fill="#38411D" d="M19.032,392.747c-0.007,0.001-0.015,0.002-0.023,0.004C19.017,392.749,19.025,392.748,19.032,392.747z"/>
	<path fill="#38411D" d="M15.122,393.139c-0.357-0.008-0.713-0.029-1.069-0.062C14.409,393.11,14.765,393.131,15.122,393.139z"/>
	<path fill="#38411D" d="M20.767,392.214c-0.136,0.05-0.271,0.104-0.408,0.149C20.496,392.318,20.631,392.264,20.767,392.214z"/>
	<path fill="#38411D" d="M16.307,393.128c-0.159,0.008-0.317,0.015-0.475,0.018C15.99,393.143,16.149,393.136,16.307,393.128z"/>
	<path fill="#38411D" d="M514.18,396.673c-6.874,0-12.467,5.593-12.467,12.467v246.191v3h-3H374.981h-3v-3V520.944
		c0-40.991-33.349-74.34-74.34-74.34s-74.34,33.349-74.34,74.34v134.388v3h-3H96.568h-3v-3V409.141
		c0-6.874-5.593-12.467-12.467-12.467s-12.467,5.593-12.467,12.467V670.8c0,6.874,5.593,12.467,12.467,12.467h154.667
		c6.464,0,11.917-5.048,12.415-11.493l0.003-0.041l0.004-0.041c0.029-0.282,0.044-0.574,0.044-0.892V520.945
		c0-27.243,22.164-49.406,49.406-49.406c27.243,0,49.406,22.163,49.406,49.406V670.8c0,0.305,0.015,0.593,0.045,0.88l0.004,0.041
		l0.003,0.041c0.492,6.451,5.945,11.505,12.415,11.505h154.667c6.874,0,12.467-5.593,12.467-12.467V409.141
		C526.647,402.266,521.054,396.673,514.18,396.673z"/>
</g>
<path fill="#38411D" d="M-377.745,978.449c141.072,0,256.571,111.588,262.863,251.135h22.529
	c-2.946-71.793-32.304-138.865-83.415-189.98c-31.037-31.037-67.555-53.943-108.532-68.084l-22.46-7.75l19.566-13.477
	c43.531-29.982,69.521-79.297,69.521-131.918c0-88.266-71.81-160.074-160.073-160.074s-160.073,71.81-160.073,160.074
	c0,52.619,25.989,101.934,69.521,131.918l19.567,13.477l-22.461,7.75c-40.978,14.141-77.493,37.049-108.533,68.084
	c-51.111,51.113-80.469,118.188-83.416,189.98h22.53C-634.316,1090.037-518.818,978.449-377.745,978.449z M-515.312,818.375
	c0-75.854,61.713-137.566,137.566-137.566s137.566,61.712,137.566,137.566c0,75.855-61.713,137.568-137.566,137.568
	S-515.312,894.23-515.312,818.375z"/>
</svg>
