<?xml version="1.0" encoding="utf-8"?>
<!-- Generator: Adobe Illustrator 16.0.0, SVG Export Plug-In . SVG Version: 6.00 Build 0)  -->
<!DOCTYPE svg PUBLIC "-//W3C//DTD SVG 1.1//EN" "http://www.w3.org/Graphics/SVG/1.1/DTD/svg11.dtd">
<svg version="1.1" id="Capa_1" xmlns="http://www.w3.org/2000/svg" xmlns:xlink="http://www.w3.org/1999/xlink" x="0px" y="0px"
	 width="65.14px" height="35.621px" viewBox="0 765.867 65.14 35.621" enable-background="new 0 765.867 65.14 35.621"
	 xml:space="preserve">
<g>
	<path fill="#DADDC5" d="M64.807,783.681c-1.565-2.881-8.222-2.3-14.84,1.294c-1.726,0.938-3.29,1.986-4.649,3.118
		c-5.857,4.872-11.429,11.142-12.997,12.947c-0.117,0.136-0.159,0.263-0.112,0.347c0.046,0.085,0.176,0.118,0.352,0.095
		c2.369-0.334,10.66-1.594,17.937-3.853c1.688-0.524,3.42-1.267,5.146-2.203C62.261,791.83,66.372,786.561,64.807,783.681z
		 M46.573,793.585c-0.812-1.497,1.322-4.232,4.759-6.099c3.438-1.868,6.896-2.169,7.709-0.673s-1.323,4.233-4.76,6.1
		C50.844,794.78,47.385,795.081,46.573,793.585z"/>
</g>
<g>
	<path fill="#354106" d="M32.569,765.867c-7.227,0-13.106,5.88-13.106,13.107c0,1.885,0.386,3.685,1.146,5.35
		c3.277,7.171,9.56,14.742,11.408,16.892c0.139,0.16,0.34,0.253,0.553,0.253c0.212,0,0.415-0.093,0.553-0.253
		c1.847-2.149,8.13-9.72,11.408-16.892c0.761-1.665,1.146-3.465,1.146-5.35C45.676,771.747,39.796,765.867,32.569,765.867z
		 M32.569,785.782c-3.754,0-6.808-3.055-6.808-6.809s3.054-6.809,6.808-6.809s6.809,3.055,6.809,6.809
		S36.323,785.782,32.569,785.782z"/>
</g>
</svg>
