<?xml version="1.0" encoding="utf-8"?>
<!-- Generator: Adobe Illustrator 16.0.0, SVG Export Plug-In . SVG Version: 6.00 Build 0)  -->
<svg version="1.2" baseProfile="tiny" id="Capa_1" xmlns="http://www.w3.org/2000/svg" xmlns:xlink="http://www.w3.org/1999/xlink"
	 x="0px" y="0px" width="595.279px" height="841.891px" viewBox="0 0 595.279 841.891" xml:space="preserve">
<g>
	<path fill="#354106" d="M297.64,123.305C133.526,123.305,0,256.819,0,420.945c0,164.125,133.525,297.64,297.64,297.64
		s297.64-133.515,297.64-297.64C595.28,256.819,461.754,123.305,297.64,123.305z M297.64,695.689
		c-151.487,0-274.744-123.257-274.744-274.744c0-151.488,123.257-274.745,274.744-274.745s274.745,123.257,274.745,274.745
		C572.385,572.433,449.127,695.689,297.64,695.689z"/>
	<path fill="#354106" d="M440.737,409.497H309.087V283.573c0-6.331-5.128-11.448-11.447-11.448s-11.447,5.117-11.447,11.448v125.924
		H154.544c-6.319,0-11.448,5.117-11.448,11.448c0,6.33,5.129,11.447,11.448,11.447h131.648v137.373
		c0,6.33,5.128,11.447,11.447,11.447s11.447-5.117,11.447-11.447V432.393h131.649c6.318,0,11.447-5.117,11.447-11.447
		C452.184,414.614,447.055,409.497,440.737,409.497z"/>
</g>
</svg>
