<?xml version="1.0" encoding="utf-8"?>
<!-- Generator: Adobe Illustrator 16.0.0, SVG Export Plug-In . SVG Version: 6.00 Build 0)  -->
<svg version="1.2" baseProfile="tiny" id="Capa_1" xmlns="http://www.w3.org/2000/svg" xmlns:xlink="http://www.w3.org/1999/xlink"
	 x="0px" y="0px" width="595.279px" height="841.891px" viewBox="0 0 595.279 841.891" xml:space="preserve">
<g>
	<path fill="#354106" d="M590.067,688.228L445.404,543.564c38.806-44.612,62.301-102.82,62.301-166.44
		c0-140.042-113.909-253.819-253.819-253.819c-140.043,0-253.819,113.909-253.819,253.819c0,139.91,113.909,253.819,253.819,253.819
		c63.619,0,121.828-23.495,166.44-62.3l144.663,144.662c3.432,3.432,8.051,5.279,12.539,5.279c4.487,0,9.107-1.716,12.539-5.279
		C596.93,706.442,596.93,695.091,590.067,688.228z M35.572,377.124c0-120.376,97.938-218.182,218.182-218.182
		c120.376,0,218.181,97.938,218.181,218.182s-97.805,218.313-218.181,218.313C133.509,595.438,35.572,497.5,35.572,377.124z"/>
</g>
</svg>
