<?xml version="1.0" encoding="utf-8"?>
<!-- Generator: Adobe Illustrator 16.0.0, SVG Export Plug-In . SVG Version: 6.00 Build 0)  -->
<!DOCTYPE svg PUBLIC "-//W3C//DTD SVG 1.1//EN" "http://www.w3.org/Graphics/SVG/1.1/DTD/svg11.dtd">
<svg version="1.1" id="Capa_1" xmlns="http://www.w3.org/2000/svg" xmlns:xlink="http://www.w3.org/1999/xlink" x="0px" y="0px"
	 width="595.279px" height="841.891px" viewBox="0 0 595.279 841.891" enable-background="new 0 0 595.279 841.891"
	 xml:space="preserve">
<g>
	<path fill="none" d="M253.754,159.942c-120.243,0-218.182,97.806-218.182,218.182s97.937,218.313,218.182,218.313
		c120.377,0,218.182-98.069,218.182-218.313S374.131,159.942,253.754,159.942z"/>
	<path fill="#354106" d="M441.161,548.807l-3.957-3.957l3.673-4.223c19.224-22.1,34.237-47.096,44.625-74.296
		c10.752-28.151,16.203-57.829,16.203-88.207c0-136.648-111.171-247.819-247.818-247.819
		c-136.648,0-247.819,111.171-247.819,247.819c0,136.648,111.171,247.819,247.819,247.819c30.377,0,60.055-5.451,88.207-16.203
		c27.2-10.389,52.196-25.402,74.295-44.625l4.223-3.673l3.958,3.958l144.662,144.661c2.238,2.239,5.263,3.522,8.297,3.522
		c3.116,0,6.111-1.254,8.217-3.441l0.04-0.041l0.04-0.04c2.186-2.186,3.39-5.132,3.39-8.295s-1.204-6.109-3.39-8.295
		L441.161,548.807z M253.754,602.438c-123.614,0-224.182-100.627-224.182-224.313c0-123.614,100.567-224.182,224.182-224.182
		S477.935,254.51,477.935,378.124C477.935,501.811,377.368,602.438,253.754,602.438z"/>
</g>
</svg>
