<?xml version="1.0" encoding="utf-8"?>
<!-- Generator: Adobe Illustrator 16.0.0, SVG Export Plug-In . SVG Version: 6.00 Build 0)  -->
<svg version="1.2" baseProfile="tiny" id="Capa_1" xmlns="http://www.w3.org/2000/svg" xmlns:xlink="http://www.w3.org/1999/xlink"
	 x="0px" y="0px" width="595.279px" height="841.891px" viewBox="0 0 595.279 841.891" xml:space="preserve">
<path fill="#354106" d="M595.28,420.945c0-164.114-133.526-297.641-297.64-297.641S0,256.832,0,420.945
	c0,86.684,37.275,164.816,96.608,219.258l-0.281,0.249l9.654,8.139c0.628,0.53,1.31,0.964,1.938,1.483
	c5.13,4.253,10.444,8.29,15.855,12.197c1.754,1.267,3.507,2.533,5.293,3.767c5.779,3.983,11.711,7.761,17.771,11.343
	c1.32,0.779,2.652,1.537,3.983,2.295c6.635,3.777,13.41,7.338,20.348,10.606c0.509,0.238,1.028,0.455,1.537,0.692
	c22.609,10.51,46.745,18.227,71.985,22.783c0.66,0.119,1.32,0.238,1.991,0.357c7.836,1.353,15.759,2.436,23.779,3.16
	c0.974,0.087,1.948,0.141,2.933,0.228c7.987,0.66,16.062,1.082,24.244,1.082c8.106,0,16.105-0.422,24.05-1.061
	c1.006-0.087,2.013-0.141,3.02-0.228c7.955-0.725,15.812-1.774,23.573-3.105c0.671-0.119,1.353-0.238,2.023-0.368
	c24.861-4.46,48.65-12.003,70.969-22.242c0.822-0.379,1.655-0.736,2.479-1.126c6.678-3.139,13.204-6.526,19.601-10.13
	c1.591-0.898,3.171-1.808,4.751-2.738c5.823-3.432,11.549-7.014,17.112-10.823c2.002-1.364,3.961-2.804,5.941-4.232
	c4.752-3.42,9.416-6.948,13.951-10.639c1.007-0.812,2.089-1.516,3.074-2.349l9.903-8.27l-0.292-0.249
	C557.648,586.562,595.28,508.072,595.28,420.945z M21.647,420.945c0-152.187,123.808-275.994,275.993-275.994
	c152.187,0,275.993,123.807,275.993,275.994c0,82.008-35.987,155.736-92.961,206.324c-3.182-2.197-6.386-4.167-9.665-5.812
	l-91.641-45.814c-8.226-4.113-13.334-12.382-13.334-21.571v-32.004c2.121-2.62,4.361-5.585,6.678-8.843
	c11.862-16.755,21.376-35.393,28.313-55.448c13.713-6.516,22.566-20.175,22.566-35.598v-38.368c0-9.384-3.441-18.486-9.6-25.641
	v-50.512c0.562-5.617,2.554-37.319-20.381-63.468c-19.947-22.772-52.232-34.299-95.97-34.299c-43.736,0-76.022,11.527-95.97,34.288
	c-22.935,26.149-20.943,57.851-20.38,63.468v50.512c-6.148,7.154-9.601,16.257-9.601,25.641v38.368
	c0,11.917,5.347,23.032,14.503,30.532c8.767,34.343,26.81,60.34,33.477,69.15v31.322c0,8.832-4.816,16.949-12.576,21.192
	l-85.58,46.681c-2.728,1.482-5.434,3.215-8.139,5.151C57.104,575.631,21.647,502.357,21.647,420.945z M459.545,644.251
	c-3.788,2.749-7.641,5.411-11.549,7.955c-1.796,1.169-3.582,2.338-5.411,3.475c-5.108,3.16-10.304,6.169-15.607,8.983
	c-1.169,0.616-2.349,1.201-3.528,1.807c-12.187,6.245-24.796,11.614-37.751,15.976c-0.455,0.151-0.909,0.313-1.375,0.466
	c-6.786,2.251-13.659,4.253-20.607,5.974c-0.021,0-0.043,0.011-0.065,0.011c-7.013,1.732-14.113,3.172-21.257,4.352
	c-0.194,0.032-0.39,0.075-0.584,0.108c-6.722,1.093-13.497,1.883-20.294,2.479c-1.201,0.108-2.402,0.184-3.615,0.271
	c-6.721,0.509-13.475,0.833-20.261,0.833c-6.861,0-13.702-0.335-20.51-0.844c-1.18-0.087-2.359-0.163-3.528-0.271
	c-6.862-0.606-13.691-1.418-20.456-2.522c-0.303-0.054-0.606-0.108-0.909-0.162c-14.309-2.392-28.39-5.909-42.103-10.51
	c-0.422-0.141-0.855-0.292-1.277-0.433c-6.808-2.316-13.54-4.881-20.153-7.717c-0.043-0.021-0.097-0.044-0.141-0.065
	c-6.256-2.694-12.393-5.682-18.453-8.831c-0.79-0.412-1.591-0.802-2.37-1.224c-5.531-2.954-10.942-6.147-16.278-9.481
	c-1.58-0.995-3.149-2.002-4.708-3.02c-4.914-3.214-9.763-6.559-14.481-10.098c-0.487-0.368-0.953-0.758-1.44-1.126
	c0.347-0.194,0.693-0.39,1.039-0.584l85.58-46.681c14.72-8.031,23.865-23.433,23.865-40.198l-0.011-38.985l-2.489-3.009
	c-0.238-0.271-23.638-28.735-32.48-67.277l-0.985-4.286l-3.69-2.392c-5.206-3.366-8.323-8.994-8.323-15.066v-38.369
	c0-5.033,2.132-9.719,6.028-13.237l3.572-3.225v-60.286l-0.098-1.418c-0.032-0.26-3.226-26.29,15.109-47.189
	c15.65-17.837,42.471-26.896,79.691-26.896c37.08,0,63.814,8.983,79.508,26.69c18.313,20.683,15.315,47.2,15.293,47.417
	l-0.097,61.704l3.571,3.226c3.886,3.506,6.028,8.204,6.028,13.237v38.368c0,7.717-5.249,14.72-12.782,17.047l-5.379,1.656
	l-1.731,5.357c-6.386,19.839-15.478,38.163-27.016,54.463c-2.835,4.004-5.596,7.555-7.966,10.271l-2.684,3.063v40.035
	c0,17.447,9.697,33.141,25.305,40.934l91.641,45.815c0.584,0.292,1.158,0.595,1.731,0.898
	C461.905,642.595,460.714,643.406,459.545,644.251z"/>
</svg>
